<mxfile host="app.diagrams.net" agent="Mozilla/5.0 (Windows NT 10.0; Win64; x64) AppleWebKit/537.36 (KHTML, like Gecko) Chrome/131.0.0.0 Safari/537.36" version="26.0.4">
  <diagram name="Page-1" id="vVkcEP3jTC_EUJbSl2FE">
    <mxGraphModel>
      <root>
        <mxCell id="0" />
        <mxCell id="1" parent="0" />
        <mxCell id="2" value="Inicio" style="fillColor=none;strokeColor=none;" vertex="1" parent="1">
          <mxGeometry x="8" y="60" width="99" height="54" as="geometry" />
        </mxCell>
        <mxCell id="3" value="Proceso 1" style="rounded=1;arcSize=40;strokeWidth=2" vertex="1" parent="1">
          <mxGeometry x="255" y="60" width="98" height="54" as="geometry" />
        </mxCell>
        <mxCell id="4" value="Decisión" style="rhombus;strokeWidth=2;whiteSpace=wrap;" vertex="1" parent="1">
          <mxGeometry x="482" y="30" width="113" height="113" as="geometry" />
        </mxCell>
        <mxCell id="5" value="Proceso 2" style="fillColor=none;strokeColor=none;" vertex="1" parent="1">
          <mxGeometry x="669" y="8" width="128" height="54" as="geometry" />
        </mxCell>
        <mxCell id="6" value="Proceso 3" style="fillColor=none;strokeColor=none;" vertex="1" parent="1">
          <mxGeometry x="669" y="112" width="128" height="54" as="geometry" />
        </mxCell>
        <mxCell id="7" value="Fin" style="fillColor=none;strokeColor=none;" vertex="1" parent="1">
          <mxGeometry x="936" y="60" width="82" height="54" as="geometry" />
        </mxCell>
        <mxCell id="8" value="Inicialización" style="curved=1;startArrow=circle;startFill=0;endArrow=block;exitX=1;exitY=0.5;entryX=0;entryY=0.5;" edge="1" parent="1" source="2" target="3">
          <mxGeometry relative="1" as="geometry">
            <Array as="points" />
          </mxGeometry>
        </mxCell>
        <mxCell id="9" value="Activación" style="curved=1;startArrow=none;endArrow=block;exitX=1;exitY=0.5;entryX=0;entryY=0.5;" edge="1" parent="1" source="3" target="4">
          <mxGeometry relative="1" as="geometry">
            <Array as="points" />
          </mxGeometry>
        </mxCell>
        <mxCell id="10" value="Sí" style="curved=1;startArrow=none;endArrow=circle;endFill=0;exitX=1.01;exitY=0.22;entryX=0;entryY=0.5;" edge="1" parent="1" source="4" target="5">
          <mxGeometry relative="1" as="geometry">
            <Array as="points">
              <mxPoint x="632" y="35" />
            </Array>
          </mxGeometry>
        </mxCell>
        <mxCell id="11" value="No" style="curved=1;startArrow=none;endArrow=circle;endFill=0;exitX=1.01;exitY=0.78;entryX=0;entryY=0.5;" edge="1" parent="1" source="4" target="6">
          <mxGeometry relative="1" as="geometry">
            <Array as="points">
              <mxPoint x="632" y="139" />
            </Array>
          </mxGeometry>
        </mxCell>
        <mxCell id="12" value="Finalización" style="curved=1;startArrow=none;endArrow=circle;endFill=0;exitX=1;exitY=0.5;entryX=0;entryY=0.14;" edge="1" parent="1" source="5" target="7">
          <mxGeometry relative="1" as="geometry">
            <Array as="points">
              <mxPoint x="867" y="35" />
            </Array>
          </mxGeometry>
        </mxCell>
        <mxCell id="13" value="Finalización" style="curved=1;startArrow=none;endArrow=block;exitX=1;exitY=0.5;entryX=0;entryY=0.86;" edge="1" parent="1" source="6" target="7">
          <mxGeometry relative="1" as="geometry">
            <Array as="points">
              <mxPoint x="867" y="139" />
            </Array>
          </mxGeometry>
        </mxCell>
      </root>
    </mxGraphModel>
  </diagram>
</mxfile>
